<?xml version="1.0" standalone="no"?><!DOCTYPE svg PUBLIC "-//W3C//DTD SVG 1.1//EN" "http://www.w3.org/Graphics/SVG/1.1/DTD/svg11.dtd"><svg t="1556003495452" class="icon" style="" viewBox="0 0 1147 1024" version="1.1" xmlns="http://www.w3.org/2000/svg" p-id="3002" xmlns:xlink="http://www.w3.org/1999/xlink" width="143.375" height="128"><defs><style type="text/css"></style></defs><path d="M831.626604 812.867211c11.470712 0 22.463477 4.54049 30.469079 12.665578 8.125088 8.125088 12.665578 18.998366 12.665577 30.469078v43.134656c0 11.470712-4.54049 22.463477-12.665577 30.469078-8.125088 8.125088-18.998366 12.665578-30.469079 12.665578H314.249708c-11.470712 0-22.463477-4.54049-30.469078-12.665578-8.125088-8.125088-12.665578-18.998366-12.665577-30.469078v-43.134656c0-11.470712 4.54049-22.463477 12.665577-30.469078 8.125088-8.125088 18.998366-12.665578 30.469078-12.665578h517.376896zM874.76126 640.448075v91.885181h-0.35846c-2.867678 21.388098-21.149125 37.518786-42.776196 37.518786H314.249708c-21.627071 0-39.908518-16.011202-42.776196-37.518786h-0.358459V640.448075c0-14.099417 6.930222-27.720887 19.237339-35.845975l129.284481-86.269311c7.049708-4.659977 15.413769-7.288681 23.897316-7.288682h258.688448c8.483547 0 16.847608 2.509218 23.897316 7.288682L855.523921 604.482614c11.948658 8.005601 19.23734 21.507585 19.237339 35.965461z m-150.911552 85.552392c7.647141 0 14.816336-4.062544 18.639907-10.753793 3.823571-6.691249 3.823571-14.935823 0-21.507584-3.823571-6.691249-10.992765-10.753792-18.639907-10.753792-11.948658 0-21.507585 9.678413-21.507584 21.507584-0.119487 11.829172 9.558926 21.507585 21.507584 21.507585z m86.149825 0c7.647141 0 14.816336-4.062544 18.639907-10.753793 3.823571-6.691249 3.823571-14.935823 0-21.507584-3.823571-6.691249-10.992765-10.753792-18.639907-10.753792-11.948658 0-21.507585 9.678413-21.507584 21.507584s9.678413 21.507585 21.507584 21.507585z m-86.149825 172.419136c11.948658 0 21.507585-9.678413 21.507585-21.507584 0-11.948658-9.678413-21.507585-21.507585-21.507585-11.948658 0-21.507585 9.678413-21.507584 21.507585-0.119487 11.829172 9.558926 21.507585 21.507584 21.507584z m86.149825 0c11.948658 0 21.507585-9.678413 21.507585-21.507584 0-11.948658-9.678413-21.507585-21.507585-21.507585s-21.507585 9.678413-21.507584 21.507585 9.678413 21.507585 21.507584 21.507584z m60.101751 21.627071" fill="#F7F7F7" p-id="3003"></path><path d="M831.626604 951.710618H314.249708c-14.099417 0-27.24294-5.496383-37.279813-15.413769-9.917386-9.917386-15.413769-23.180397-15.413769-37.279813v-43.134656c0-14.099417 5.496383-27.24294 15.413769-37.279813 9.917386-9.917386 23.180397-15.413769 37.279813-15.413769h517.376896c14.099417 0 27.24294 5.496383 37.279814 15.413769 9.917386 9.917386 15.413769 23.180397 15.413769 37.279813v43.134656c0 14.099417-5.496383 27.24294-15.413769 37.279813-10.036873 10.036873-23.180397 15.413769-37.279814 15.413769zM314.249708 822.426138c-8.961494 0-17.445041 3.465111-23.777829 9.797899-6.332789 6.332789-9.7979 14.816336-9.7979 23.77783v43.134656c0 8.961494 3.465111 17.445041 9.7979 23.777829 6.332789 6.332789 14.816336 9.7979 23.777829 9.7979h517.376896c8.961494 0 17.445041-3.465111 23.77783-9.7979 6.332789-6.332789 9.7979-14.816336 9.7979-23.777829v-43.134656c0-8.961494-3.465111-17.445041-9.7979-23.77783-6.332789-6.332789-14.816336-9.7979-23.77783-9.797899H314.249708z m495.749825 85.552392c-17.206068 0-31.066511-13.97993-31.066511-31.066511 0-17.206068 13.97993-31.066511 31.066511-31.066511s31.066511 13.97993 31.066511 31.066511c0.119487 17.086581-13.860443 31.066511-31.066511 31.066511z m0-43.134656c-6.571762 0-11.948658 5.376896-11.948658 11.948658s5.376896 11.948658 11.948658 11.948658 11.948658-5.376896 11.948658-11.948658c0.119487-6.571762-5.25741-11.948658-11.948658-11.948658z m-86.149825 43.134656c-17.206068 0-31.066511-13.97993-31.066511-31.066511 0-17.206068 13.97993-31.066511 31.066511-31.066511 17.206068 0 31.066511 13.97993 31.066511 31.066511s-13.97993 31.066511-31.066511 31.066511z m0-43.134656c-6.571762 0-11.948658 5.376896-11.948658 11.948658s5.376896 11.948658 11.948658 11.948658 11.948658-5.376896 11.948658-11.948658-5.376896-11.948658-11.948658-11.948658z m107.776896-85.552392H314.249708c-23.41937 0-43.851575-15.652742-50.423337-37.518787h-2.270245V640.448075c0-17.684014 8.72252-34.053676 23.41937-43.851576l129.284481-86.269311c8.72252-5.735356 18.759393-8.842007 29.274212-8.842007h258.688448c10.395333 0 20.551692 3.106651 29.154726 8.842007l129.403967 86.269311c14.696849 9.7979 23.41937 26.167561 23.41937 43.851576v101.444107h-2.270245c-6.452275 21.746558-26.884481 37.3993-50.303851 37.3993z m-550.952625-50.542824l0.238973 2.270245c2.150758 16.608635 16.489148 29.154726 33.21727 29.154726h517.376896c16.728121 0 31.066511-12.546091 33.217269-29.154726l0.238974-2.270245v-88.42007c0-11.231739-5.615869-21.627071-14.935823-27.95986l-129.284481-86.269311c-5.496383-3.704084-11.948658-5.615869-18.639906-5.61587H443.534189c-6.691249 0-13.143524 1.911785-18.639907 5.61587l-129.403967 86.269311c-9.319953 6.213302-14.935823 16.728121-14.935823 27.95986v88.42007z m529.325554 6.810735c-17.206068 0-31.066511-13.97993-31.066511-31.066511 0-17.206068 13.97993-31.066511 31.066511-31.066511 11.112252 0 21.388098 5.974329 27.003968 15.533256 5.496383 9.558926 5.496383 21.507585 0 31.066511s-15.891715 15.533256-27.003968 15.533255z m0-43.134656c-6.571762 0-11.948658 5.376896-11.948658 11.948659s5.376896 11.948658 11.948658 11.948658c4.301517 0 8.244574-2.270245 10.395333-5.974329 2.150758-3.704084 2.150758-8.244574 0-11.948658s-6.093816-5.974329-10.395333-5.97433z m-86.149825 43.134656c-17.206068 0-31.066511-13.97993-31.066511-31.066511 0-17.206068 13.97993-31.066511 31.066511-31.066511 11.112252 0 21.388098 5.974329 27.003968 15.533256 5.496383 9.558926 5.496383 21.507585 0 31.066511-5.615869 9.558926-16.011202 15.533256-27.003968 15.533255z m0-43.134656c-6.571762 0-11.948658 5.376896-11.948658 11.948659s5.376896 11.948658 11.948658 11.948658c4.301517 0 8.244574-2.270245 10.395333-5.974329 2.150758-3.704084 2.150758-8.244574 0-11.948658-2.150758-3.704084-6.213302-5.974329-10.395333-5.97433z" fill="#E2E2E2" p-id="3004"></path><path d="M992.455543 503.396966h-14.935823v14.935823c0 8.244574-6.691249 14.935823-14.935823 14.935822s-14.935823-6.691249-14.935822-14.935822v-14.935823h-14.935823c-8.125088-0.119487-14.816336-6.691249-14.816336-14.935822 0-8.125088 6.571762-14.816336 14.816336-14.935823h14.935823v-14.935823c0-8.244574 6.691249-14.935823 14.935822-14.935822s14.935823 6.691249 14.935823 14.935822v14.935823h14.935823c8.125088 0.119487 14.816336 6.691249 14.816336 14.935823-0.119487 8.244574-6.691249 14.816336-14.816336 14.935822zM813.94259 280.196033L947.767561 131.435239l-44.568494 193.448775zM694.933956 235.508051L947.767561 131.435239 784.190432 280.196033zM699.354959 425.611202c2.509218 2.509218 2.509218 6.452275 0.238973 9.08098-5.974329 6.452275-12.187631 12.546091-18.639906 18.400934-2.509218 2.150758-6.452275 1.911785-8.603034-0.597433-2.389732-2.748191-2.270245-6.810735 0.35846-9.319954 6.213302-5.496383 12.187631-11.470712 17.922987-17.564527 1.194866-1.194866 2.748191-1.911785 4.421003-1.911785 1.553326 0 3.106651 0.597433 4.301517 1.911785zM639.372695 483.323221c-2.031272 1.194866-4.421004 1.194866-6.452275 0-2.031272-1.314352-3.106651-3.584597-2.987164-5.97433 0.119487-2.389732 1.433839-4.421004 3.584597-5.496382 7.169195-4.062544 14.099417-8.603034 20.671179-13.501984 2.867678-1.792299 6.691249-0.955893 8.603033 1.792299 1.911785 2.867678 1.433839 6.691249-1.194865 8.961493-7.049708 5.137923-14.457876 9.917386-22.224505 14.218904zM591.100117 504.711319c-2.270245 0.238973-4.54049-0.836406-5.854843-2.748192-1.194866-2.031272-1.314352-4.54049-0.238973-6.691248 1.075379-2.031272 3.226138-3.465111 5.496383-3.465111 8.244574-0.716919 16.369662-1.911785 24.494749-3.584598 3.345624-0.477946 6.452275 1.911785 7.049708 5.25741 0.597433 3.465111-1.553326 6.691249-4.89895 7.647141-8.603034 1.792299-17.325554 2.987165-26.048074 3.584598z" fill="#E2E2E2" p-id="3005"></path><path d="M606.035939 506.623104c-1.433839 1.792299-3.704084 2.748191-5.974329 2.389731-2.270245-0.477946-4.18203-2.270245-4.89895-4.421003-0.716919-2.270245-0.238973-4.659977 1.314353-6.452275 5.25741-6.332789 10.036873-13.143524 14.457876-20.073746 2.031272-2.748191 5.854842-3.345624 8.603034-1.433839 2.867678 1.911785 3.704084 5.735356 2.031272 8.72252-4.779463 7.408168-9.917386 14.577363-15.533256 21.268612zM613.205134 459.425904c-3.465111 0.238973-6.571762-2.270245-6.930222-5.854842-0.35846-7.647141-2.867678-15.174796-7.049708-21.627071-2.031272-2.987165-1.314352-6.930222 1.553326-9.08098 1.314352-0.955893 3.106651-1.433839 4.779463-1.07538 1.672812 0.35846 3.106651 1.314352 4.062544 2.748192 5.615869 8.364061 8.72252 18.042474 9.319953 28.079346 0.119487 3.584597-2.389732 6.452275-5.735356 6.810735zM582.019137 416.888681c-6.930222-3.704084-14.33839-6.213302-22.105018-7.408168-2.270245-0.35846-4.18203-1.792299-5.018436-4.062543-0.836406-2.150758-0.477946-4.659977 0.955892-6.571762 1.433839-1.792299 3.704084-2.628705 5.974329-2.389732 9.08098 1.553326 17.922987 4.421004 26.048075 8.72252 2.150758 1.075379 3.465111 3.106651 3.584597 5.496383 0.119487 2.389732-0.955893 4.659977-2.987164 5.974329-1.911785 1.433839-4.54049 1.553326-6.452275 0.238973zM567.56126 491.806768c-0.35846 1.672812-1.433839 2.987165-2.987164 3.82357-1.433839 0.836406-3.226138 1.075379-4.779464 0.597433-8.842007-2.509218-17.206068-6.571762-24.614235-11.948658-2.748191-2.150758-3.345624-5.974329-1.433839-8.961493 0.836406-1.433839 2.270245-2.389732 3.82357-2.748192 1.553326-0.35846 3.226138-0.119487 4.659977 0.836406 6.452275 4.54049 13.501984 8.005601 21.029638 10.275846 3.345624 1.075379 5.25741 4.659977 4.301517 8.125088zM536.016803 409.6c-7.288681 1.075379-14.218903 4.18203-19.834773 9.08098-1.672812 1.553326-3.943057 2.031272-6.093815 1.433839-1.075379-0.238973-2.031272-0.955893-2.748192-1.792299-2.389732-2.628705-2.270245-6.691249 0.238973-9.200466 7.408168-6.691249 16.489148-10.992765 26.287048-12.546091 1.075379-0.119487 2.150758 0 3.226138 0.238973 3.345624 1.433839 5.018436 5.137923 3.823571 8.483547-0.836406 2.389732-2.748191 3.943057-4.89895 4.301517zM479.021704 74.08168c-13.860443-5.735356-29.871645-2.628705-40.505951 8.125088-10.634306 10.634306-13.860443 26.645508-8.005601 40.505951 5.735356 13.860443 19.356826 22.941424 34.412135 22.941423 20.551692 0 37.160327-16.608635 37.160327-37.160326-0.119487-15.055309-9.200467-28.676779-23.06091-34.412136z m-5.735356 54.963828c-8.364061 3.465111-17.922987 1.553326-24.375263-4.779464-6.332789-6.332789-8.244574-16.011202-4.779463-24.375262 3.465111-8.364061 11.590198-13.740957 20.671178-13.740957 12.307118 0 22.343991 10.036873 22.343991 22.343991-0.119487 8.961494-5.496383 17.206068-13.860443 20.551692zM514.270245 465.280747c-6.571762-7.169195-11.470712-15.652742-14.457876-24.853209-0.716919-2.270245-0.119487-4.659977 1.433839-6.452275 1.553326-1.672812 3.823571-2.389732 6.093815-1.792299 2.270245 0.477946 3.943057 2.270245 4.54049 4.421003 2.509218 7.408168 6.571762 14.099417 11.829172 19.834773 2.270245 2.748191 2.031272 6.810735-0.477946 9.200467-1.194866 1.194866-2.867678 1.792299-4.54049 1.672812-1.792299 0-3.345624-0.716919-4.421004-2.031272zM708.555426 414.976896c-2.628705-2.389732-2.987165-6.332789-0.836406-9.08098 5.376896-6.571762 10.514819-13.263011 15.533255-20.073746 0.955893-1.314352 2.509218-2.150758 4.062544-2.389731 1.672812-0.238973 3.345624 0.238973 4.659977 1.194866 2.748191 2.270245 3.345624 6.093816 1.433839 9.08098-5.137923 6.930222-10.395333 13.97993-16.011202 20.671178-1.075379 1.314352-2.628705 2.031272-4.18203 2.150759-1.911785 0.119487-3.465111-0.477946-4.659977-1.553326zM742.728588 374.470945c-2.389732-0.119487-4.421004-1.553326-5.376896-3.704084-0.955893-2.150758-0.716919-4.779463 0.597433-6.691248 4.659977-7.169195 9.08098-14.457876 13.382497-21.866045 0.836406-1.433839 2.270245-2.509218 3.823571-2.987164 1.672812-0.35846 3.345624-0.119487 4.779463 0.716919 2.987165 1.911785 3.943057 5.854842 2.150758 8.961494-4.421004 7.527655-8.961494 15.174796-13.740957 22.463477-1.075379 2.150758-3.226138 3.345624-5.615869 3.106651zM765.908985 329.185531c-3.106651-1.792299-4.18203-5.735356-2.509218-8.961494 2.389732-4.659977 4.779463-9.319953 7.169194-14.099416 1.433839-2.867678 5.018436-4.18203 8.005601-2.867678 3.226138 1.553326 4.659977 5.376896 3.345625 8.603034-2.389732 4.89895-4.779463 9.7979-7.288682 14.577363-0.716919 1.553326-2.150758 2.628705-3.704084 3.106651-1.792299 0.597433-3.465111 0.35846-5.018436-0.35846zM828.758926 309.948191l-29.752158 44.687982V295.131855zM576.403267 551.072112c-1.075379 1.314352-2.628705 2.031272-4.421003 2.150758-1.672812 0.119487-3.345624-0.477946-4.54049-1.672812-2.509218-2.509218-2.748191-6.571762-0.35846-9.200466 5.615869-6.213302 10.753792-12.904551 15.413769-19.834773 0.955893-1.314352 2.389732-2.150758 4.062544-2.389731 1.672812-0.238973 3.226138 0.238973 4.54049 1.194865 2.748191 2.031272 3.465111 5.854842 1.672812 8.722521-5.018436 7.527655-10.514819 14.457876-16.369662 21.029638zM537.928588 587.037573c-1.314352 0.955893-2.987165 1.314352-4.54049 1.075379-1.672812-0.238973-3.106651-1.075379-4.062544-2.509218-2.031272-2.867678-1.672812-6.691249 0.955893-9.08098 6.571762-5.137923 13.024037-10.634306 19.117853-16.369662 1.194866-1.194866 2.867678-1.672812 4.54049-1.553325 1.672812 0.119487 3.226138 0.955893 4.301517 2.150758 2.270245 2.748191 2.150758 6.810735-0.477946 9.200467-6.332789 5.974329-12.904551 11.709685-19.834773 17.086581zM495.391365 616.789732c-1.433839 0.836406-3.106651 1.075379-4.779463 0.597433-1.553326-0.477946-2.987165-1.553326-3.704084-2.987165-1.792299-2.987165-0.836406-6.930222 2.031272-8.961494 7.169195-4.301517 14.099417-8.961494 21.029638-13.860443 1.433839-0.955893 3.106651-1.314352 4.779463-0.955893 1.672812 0.35846 3.106651 1.314352 4.062544 2.748192 1.911785 3.106651 1.194866 7.049708-1.672812 9.200466-7.169195 4.89895-14.457876 9.558926-21.746558 14.218904zM450.583897 642.0014c-1.433839 0.716919-3.226138 0.836406-4.779463 0.35846-1.553326-0.477946-2.867678-1.672812-3.584597-3.226138-1.553326-3.226138-0.477946-7.169195 2.748191-8.961493 7.408168-3.704084 14.935823-7.766628 22.224504-11.948658 1.433839-0.836406 3.226138-0.955893 4.779463-0.477947 1.553326 0.477946 2.867678 1.672812 3.584598 3.106651 1.672812 3.106651 0.597433 6.930222-2.389732 8.722521-7.408168 4.421004-14.935823 8.603034-22.582964 12.426604z" fill="#E2E2E2" p-id="3006"></path><path d="M136.931622 295.131855c-9.08098 0-17.206068-5.376896-20.671179-13.740957-3.465111-8.364061-1.553326-17.922987 4.89895-24.375262 6.332789-6.332789 16.011202-8.244574 24.375263-4.89895 8.364061 3.465111 13.740957 11.590198 13.740957 20.671179 0 12.307118-10.036873 22.343991-22.343991 22.34399z" fill="#D5D5D5" p-id="3007"></path></svg>